<svg xmlns="http://www.w3.org/2000/svg" width="40" height="40" viewBox="0 0 40 40">
    <path d="M20 0c11.044 0 20 8.956 20 20s-8.956 20-20 20S0 31.044 0 20 8.956 0 20 0zm2.125 8.52h-4.25c-1.294.007-1.743.025-2.61.065-1.222.056-2.057.25-2.788.534-.766.288-1.46.74-2.034 1.324-.584.574-1.036 1.268-1.325 2.034-.258.665-.442 1.415-.515 2.464l-.018.324c-.052 1.14-.067 1.558-.07 4.127l.006 2.93c.008 1.145.026 1.592.064 2.413.056 1.222.25 2.057.534 2.788.288.766.74 1.46 1.324 2.034.574.584 1.268 1.036 2.035 1.324.664.258 1.414.442 2.463.515l.324.02c1.14.051 1.558.066 4.128.068l2.733-.004c1.293-.007 1.743-.025 2.61-.065 1.221-.056 2.056-.25 2.787-.534 1.542-.596 2.762-1.816 3.358-3.358.258-.665.442-1.415.516-2.464l.018-.324c.052-1.14.067-1.558.07-4.127l-.006-2.93c-.008-1.145-.026-1.592-.064-2.413-.055-1.222-.25-2.057-.534-2.788-.288-.766-.74-1.46-1.324-2.034-.574-.584-1.268-1.036-2.034-1.325-.665-.257-1.415-.441-2.464-.514l-.828-.041c-.59-.025-1.084-.037-2.106-.043zm-3.249 2.066h2.248l1.762.01c.704.01 1.108.027 1.755.056 1.12.051 1.727.238 2.132.395.499.184.95.478 1.32.86.382.37.676.821.86 1.32l.074.202c.125.365.252.879.307 1.681l.047 1.043c.022.621.03 1.253.033 2.723l-.002 3.036c-.006 1.402-.023 1.834-.064 2.73-.051 1.119-.238 1.727-.395 2.131-.387 1.002-1.178 1.794-2.18 2.18l-.202.074c-.365.125-.879.253-1.681.307l-1.2.053c-.646.02-1.377.027-3.093.028l-3.056-.006c-.988-.008-1.415-.026-2.182-.06-1.12-.052-1.728-.239-2.132-.396-.5-.184-.95-.478-1.32-.86-.328-.317-.59-.693-.774-1.109l-.086-.21c-.145-.374-.316-.92-.381-1.883l-.05-1.087c-.022-.677-.03-1.39-.031-3.207l.005-2.875c.007-1.12.025-1.55.062-2.363.05-1.12.238-1.727.395-2.132.184-.499.478-.95.86-1.32.37-.382.821-.676 1.32-.86l.202-.074c.402-.137.983-.278 1.93-.321l1.174-.045c.527-.014 1.166-.02 2.343-.021zM20 14.103c-3.257 0-5.898 2.64-5.898 5.897s2.64 5.897 5.898 5.897c3.257 0 5.897-2.64 5.897-5.897s-2.64-5.897-5.897-5.897zm0 2.069c2.114 0 3.828 1.714 3.828 3.828S22.114 23.828 20 23.828 16.172 22.114 16.172 20s1.714-3.828 3.828-3.828zm6.13-3.68c-.76 0-1.378.617-1.378 1.378 0 .76.617 1.378 1.378 1.378.761 0 1.378-.617 1.379-1.378 0-.761-.618-1.379-1.379-1.379z"/>
</svg>
