<svg xmlns="http://www.w3.org/2000/svg" width="16" height="16" viewBox="0 0 16 16">
    <path d="M3.236 0c.436 0 .849.18 1.198.52l.24.23.77.777.985.982c.368.363.564.787.564 1.221 0 .378-.15.75-.434 1.082l-.13.14-.598.603c-.223.22-.397.377-.578.508.217.502.53.998 1.004 1.596.935 1.142 1.91 2.027 2.981 2.704l.118.07.148.078.25.129c.04.023.069.043.09.065l.024.034 1.184-1.18c.357-.355.776-.544 1.212-.544.383 0 .75.146 1.067.422l.133.126 1.987 1.98c.73.727.732 1.687.008 2.439l-.218.22-.494.48-.214.218-.17.19-.014.02-.008.008c-.503.544-1.111.832-1.854.876l-.249.006-.185-.006c-1.042-.067-1.993-.378-3.17-.934-2.173-1.05-4.073-2.531-5.65-4.409C1.936 9.097 1.059 7.64.478 6.067.097 5.05-.05 4.206.014 3.41c.048-.57.258-1.071.627-1.497l.145-.155L2.024.524C2.386.18 2.802 0 3.236 0zm0 .907c-.16 0-.326.063-.482.185l-.092.08-1.23 1.226c-.307.306-.472.66-.511 1.089-.053.659.077 1.381.414 2.275.547 1.471 1.374 2.844 2.604 4.318 1.491 1.778 3.29 3.182 5.344 4.172 1.06.503 1.923.787 2.832.845l.17.007c.571 0 1.01-.186 1.38-.582.068-.082.139-.161.218-.245l.407-.407.27-.261.238-.243c.355-.368.385-.735.09-1.085l-.08-.088-1.995-1.984c-.159-.17-.348-.278-.549-.278-.158 0-.32.067-.477.195l-.093.084-1.237 1.232c-.146.146-.303.239-.528.239-.076 0-.153-.013-.23-.04l-.114-.049-.226-.128-.392-.2-.154-.086-.068-.042c-1.16-.733-2.208-1.684-3.2-2.904-.48-.601-.816-1.124-1.066-1.663l-.103-.232-.01-.028c-.087-.259-.075-.475.095-.69l.1-.11.262-.24.957-.951c.197-.197.296-.393.296-.581 0-.158-.069-.32-.206-.483l-.09-.098-1.795-1.798-.19-.18c-.177-.18-.37-.271-.56-.271z"/>
</svg>
