<svg xmlns="http://www.w3.org/2000/svg" width="16" height="16" viewBox="0 0 16 16">
    <path d="M8-.014c3.263 0 6.485 3.184 6.485 6.384 0 2.062-1.94 5.005-5.802 8.928l-.685.688-.679-.69C3.493 11.373 1.573 8.43 1.573 6.37 1.573 3.162 4.745-.014 8-.014zm0 .987c-2.7 0-5.427 2.73-5.427 5.397 0 1.619 1.613 4.18 4.851 7.601l.308.323.27.279.576-.594.595-.633C11.862 10.44 13.29 8.2 13.466 6.68l.014-.16.005-.15C13.485 3.715 10.71.973 8 .973zM8 3.5c1.657 0 3 1.343 3 3s-1.343 3-3 3-3-1.343-3-3 1.343-3 3-3zm0 1c-1.105 0-2 .895-2 2s.895 2 2 2 2-.895 2-2-.895-2-2-2z"/>
</svg>
